<svg width="1440" height="1024" viewBox="0 0 1440 1024" fill="none" xmlns="http://www.w3.org/2000/svg">
<g clip-path="url(#clip0)">
<rect width="1440" height="1024" fill="white"/>
<path d="M1043.71 275.068C1050.32 272.454 1057.68 272.454 1064.29 275.068L1444.47 425.333C1452.63 428.557 1458.81 435.419 1461.16 443.87L1552.76 773.251C1555.42 782.842 1552.8 793.127 1545.86 800.266L1286.13 1067.57C1280.86 1073 1273.62 1076.06 1266.05 1076.06H841.95C834.385 1076.06 827.141 1073 821.869 1067.57L562.139 800.266C555.202 793.127 552.577 782.842 555.244 773.251L646.843 443.87C649.194 435.419 655.369 428.557 663.528 425.333L1043.71 275.068Z" fill="#F87575" fill-opacity="0.08"/>
<path d="M541.9 271L541.432 267.958C544.188 267.49 545.852 266.97 546.424 266.398C547.048 265.826 547.36 264.734 547.36 263.122V224.824C547.36 223.212 547.048 222.12 546.424 221.548C545.852 220.976 544.188 220.456 541.432 219.988L541.9 216.946H566.314C570.786 216.946 574.66 217.674 577.936 219.13C581.212 220.534 583.76 222.484 585.58 224.98C589.116 229.764 590.884 235.536 590.884 242.296C590.884 249.732 588.908 256.206 584.956 261.718C582.98 264.526 580.224 266.788 576.688 268.504C573.204 270.168 569.174 271 564.598 271H541.9ZM554.926 263.746C554.926 264.89 555.472 265.566 556.564 265.774C560.204 266.502 562.96 266.866 564.832 266.866C570.604 266.866 574.946 264.812 577.858 260.704C580.77 256.596 582.226 251.11 582.226 244.246C582.226 239.93 581.654 236.186 580.51 233.014C579.418 229.842 577.936 227.424 576.064 225.76C572.528 222.64 568.68 221.08 564.52 221.08H554.926V263.746ZM597.271 271L596.803 267.958C599.351 267.438 600.885 266.918 601.405 266.398C601.977 265.826 602.263 264.864 602.263 263.512V241.126C602.263 240.034 601.847 239.254 601.015 238.786C600.183 238.266 598.623 237.772 596.335 237.304L596.803 234.808C602.367 234.08 606.241 233.716 608.425 233.716L609.283 234.496V265.384C609.283 266.008 609.413 266.424 609.673 266.632C609.985 266.788 610.375 266.918 610.843 267.022L614.665 267.958L614.353 271H597.271ZM609.361 219.832C609.361 221.132 608.945 222.224 608.113 223.108C607.333 223.992 606.267 224.434 604.915 224.434C603.615 224.434 602.523 224.044 601.639 223.264C600.807 222.484 600.391 221.418 600.391 220.066C600.391 218.662 600.781 217.544 601.561 216.712C602.393 215.88 603.511 215.464 604.915 215.464C607.879 215.464 609.361 216.92 609.361 219.832ZM634.21 271.702L621.886 239.956C621.522 238.968 621.158 238.344 620.794 238.084C620.43 237.824 619.416 237.512 617.752 237.148L618.22 234.106H634.288L634.6 237.148L629.842 238.318C629.478 238.37 629.296 238.578 629.296 238.942C629.296 238.994 629.4 239.332 629.608 239.956L636.628 259.612C637.252 261.432 637.564 262.862 637.564 263.902H638.188L646.846 241.75C647.158 240.918 647.314 240.242 647.314 239.722C647.314 239.15 646.924 238.682 646.144 238.318C645.416 237.954 644.09 237.564 642.166 237.148L642.634 234.106H656.518L656.83 237.148C655.166 237.564 654.152 237.85 653.788 238.006C653.424 238.11 653.216 238.266 653.164 238.474L639.28 271.702H634.21ZM660.113 271L659.645 267.958C662.193 267.438 663.727 266.918 664.247 266.398C664.819 265.826 665.105 264.864 665.105 263.512V241.126C665.105 240.034 664.689 239.254 663.857 238.786C663.025 238.266 661.465 237.772 659.177 237.304L659.645 234.808C665.209 234.08 669.083 233.716 671.267 233.716L672.125 234.496V265.384C672.125 266.008 672.255 266.424 672.515 266.632C672.827 266.788 673.217 266.918 673.685 267.022L677.507 267.958L677.195 271H660.113ZM672.203 219.832C672.203 221.132 671.787 222.224 670.955 223.108C670.175 223.992 669.109 224.434 667.757 224.434C666.457 224.434 665.365 224.044 664.481 223.264C663.649 222.484 663.233 221.418 663.233 220.066C663.233 218.662 663.623 217.544 664.403 216.712C665.235 215.88 666.353 215.464 667.757 215.464C670.721 215.464 672.203 216.92 672.203 219.832ZM708.674 265.852C705.658 269.752 702.044 271.702 697.832 271.702C693.62 271.702 690.162 270.038 687.458 266.71C684.754 263.33 683.402 258.728 683.402 252.904C683.402 247.08 684.936 242.296 688.004 238.552C691.072 234.808 695.362 232.936 700.874 232.936C704.67 232.936 707.478 233.612 709.298 234.964L709.844 234.73C709.636 233.898 709.532 232.754 709.532 231.298V218.194C709.532 217.102 708.986 216.296 707.894 215.776C706.854 215.204 704.956 214.736 702.2 214.372L702.668 211.876C708.232 211.148 712.574 210.784 715.694 210.784L716.552 211.564V263.356C716.552 264.708 716.864 265.67 717.488 266.242C718.164 266.762 719.828 267.282 722.48 267.802L722.012 270.298L712.652 271.312C712.132 271.312 711.56 270.792 710.936 269.752C710.312 268.712 710 267.776 710 266.944C710 266.112 710.026 265.488 710.078 265.072L709.454 264.838L708.674 265.852ZM690.968 251.032C690.968 256.18 691.774 259.976 693.386 262.42C695.05 264.864 697.13 266.086 699.626 266.086C702.122 266.086 704.722 265.202 707.426 263.434C708.83 262.498 709.532 261.302 709.532 259.846V241.204C707.4 238.656 704.072 237.382 699.548 237.382C697.312 237.382 695.544 238.11 694.244 239.566C692.06 242.01 690.968 245.832 690.968 251.032Z" fill="#49B6FF"/>
<path d="M743.402 248.52C741.962 248.52 740.522 248.44 739.082 248.28C739.135 254.2 740.229 258.707 742.362 261.8C744.549 264.893 747.589 266.44 751.482 266.44C756.975 266.44 760.975 263.747 763.482 258.36C764.762 259.587 765.402 261.08 765.402 262.84C765.402 265.827 763.722 268.173 760.362 269.88C757.055 271.533 753.589 272.36 749.962 272.36C743.509 272.36 738.629 270.307 735.322 266.2C732.069 262.093 730.442 256.787 730.442 250.28C730.442 246.387 731.055 242.467 732.282 238.52C733.509 234.52 735.189 230.867 737.322 227.56C739.455 224.2 742.202 221.48 745.562 219.4C748.922 217.32 752.602 216.28 756.602 216.28C760.602 216.28 763.642 217.293 765.722 219.32C767.855 221.347 768.922 223.96 768.922 227.16C768.922 232.333 766.522 237.187 761.722 241.72C756.975 246.253 750.869 248.52 743.402 248.52ZM760.522 229.8C760.522 227.613 759.829 225.827 758.442 224.44C757.109 223 755.242 222.28 752.842 222.28C750.495 222.28 748.442 222.947 746.682 224.28C744.975 225.613 743.615 227.4 742.602 229.64C740.789 233.8 739.669 238.307 739.242 243.16C740.522 243.32 741.722 243.4 742.842 243.4C748.282 243.4 752.575 242.013 755.722 239.24C758.922 236.413 760.522 233.267 760.522 229.8ZM827.155 184.276C827.155 182.764 826.831 181.504 826.183 180.496C828.055 178.264 830.467 177.148 833.419 177.148C836.731 177.148 838.387 179.2 838.387 183.304C838.387 185.824 835.543 191.584 829.855 200.584C824.239 209.512 817.975 218.26 811.063 226.828C816.247 236.836 821.503 245.44 826.831 252.64C832.159 259.768 836.731 264.052 840.547 265.492C839.611 270.1 837.091 272.404 832.987 272.404C828.883 272.404 824.095 268.984 818.623 262.144C813.223 255.232 807.787 246.448 802.315 235.792C798.211 241.696 794.683 247.492 791.731 253.18C788.779 258.796 787.303 262.612 787.303 264.628C787.303 266.572 787.627 268.048 788.275 269.056C786.331 271.288 783.883 272.404 780.931 272.404C777.691 272.404 776.071 270.388 776.071 266.356C776.071 264.124 778.303 259.3 782.767 251.884C787.303 244.468 792.631 236.728 798.751 228.664C794.575 219.88 791.083 211.528 788.275 203.608C785.539 195.616 784.171 190.216 784.171 187.408C784.171 184.528 784.783 182.332 786.007 180.82C787.303 179.308 789.715 178.012 793.243 176.932C794.323 188.092 799.111 202.456 807.607 220.024C812.431 213.616 816.895 206.812 820.999 199.612C825.103 192.34 827.155 187.228 827.155 184.276ZM850.514 229.72C850.514 224.76 849.954 221.187 848.834 219C849.367 218.467 850.167 218.04 851.234 217.72C852.3 217.347 853.26 217.16 854.114 217.16C855.98 217.16 857.367 217.8 858.274 219.08C859.18 220.36 859.634 222.84 859.634 226.52C859.634 230.2 858.86 236.227 857.314 244.6C860.834 235.587 864.3 228.627 867.714 223.72C871.18 218.76 874.354 216.28 877.234 216.28C880.86 216.28 883.927 218.2 886.434 222.04C888.94 225.827 890.194 231.533 890.194 239.16C890.194 247.427 888.46 254.84 884.994 261.4C883.34 264.6 881.074 267.187 878.194 269.16C875.367 271.133 872.167 272.12 868.594 272.12C866.354 272.12 863.927 271.72 861.314 270.92C858.754 270.067 856.7 269 855.154 267.72C854.887 270.76 854.754 273.48 854.754 275.88C854.754 282.6 856.007 287.24 858.514 289.8C856.914 291.72 855.1 292.68 853.074 292.68C848.54 292.68 846.274 288.6 846.274 280.44C846.274 278.2 846.967 271.293 848.354 259.72C849.794 248.093 850.514 238.093 850.514 229.72ZM875.074 224.76C873.794 224.76 872.22 225.827 870.354 227.96C868.487 230.04 866.594 232.787 864.674 236.2C862.807 239.613 861.047 243.8 859.394 248.76C857.74 253.667 856.514 258.653 855.714 263.72C859.127 265.693 863.1 266.68 867.634 266.68C872.167 266.68 875.66 264.333 878.114 259.64C880.62 254.893 881.874 248.893 881.874 241.64C881.874 236.787 881.287 232.76 880.114 229.56C878.994 226.36 877.314 224.76 875.074 224.76Z" fill="#3EC199"/>
</g>
<defs>
<clipPath id="clip0">
<rect width="1440" height="1024" fill="white"/>
</clipPath>
</defs>
</svg>
