<svg width="1440" height="1024" viewBox="0 0 1440 1024" fill="none" xmlns="http://www.w3.org/2000/svg">
<g clip-path="url(#clip0)">
<rect width="1440" height="1024" fill="white"/>
<rect x="733" y="-54" width="768" height="1322" fill="#F87575"/>
<g filter="url(#filter0_d)">
<path d="M223 10L332.563 648.814H687.116L400.276 1043.62L509.839 1682.44L223 1287.63L-63.8392 1682.44L45.7236 1043.62L-241.116 648.814H113.437L223 10Z" fill="white"/>
</g>
<path d="M1276.99 317.102L721.004 217.607L799.863 581.484L673.209 217.415L172.208 312.672L649.914 187.16L261.419 -117.846L683.313 168.653L944.211 -115.107L727.249 187.47L1276.99 317.102Z" fill="white"/>
<path d="M333.9 812.162C333.9 814.424 333.08 816.188 331.439 817.453C329.799 818.719 327.572 819.352 324.76 819.352C321.713 819.352 319.369 818.959 317.729 818.174V815.291C318.783 815.736 319.932 816.088 321.174 816.346C322.416 816.604 323.646 816.732 324.865 816.732C326.857 816.732 328.357 816.357 329.365 815.607C330.373 814.846 330.877 813.791 330.877 812.443C330.877 811.553 330.695 810.826 330.332 810.264C329.98 809.689 329.383 809.162 328.539 808.682C327.707 808.201 326.436 807.656 324.725 807.047C322.334 806.191 320.623 805.178 319.592 804.006C318.572 802.834 318.062 801.305 318.062 799.418C318.062 797.438 318.807 795.861 320.295 794.689C321.783 793.518 323.752 792.932 326.201 792.932C328.756 792.932 331.105 793.4 333.25 794.338L332.318 796.939C330.197 796.049 328.135 795.604 326.131 795.604C324.549 795.604 323.312 795.943 322.422 796.623C321.531 797.303 321.086 798.246 321.086 799.453C321.086 800.344 321.25 801.076 321.578 801.65C321.906 802.213 322.457 802.734 323.23 803.215C324.016 803.684 325.211 804.205 326.816 804.779C329.512 805.74 331.363 806.771 332.371 807.873C333.391 808.975 333.9 810.404 333.9 812.162ZM341.635 819H338.717V799.734H341.635V819ZM338.471 794.514C338.471 793.846 338.635 793.359 338.963 793.055C339.291 792.738 339.701 792.58 340.193 792.58C340.662 792.58 341.066 792.738 341.406 793.055C341.746 793.371 341.916 793.857 341.916 794.514C341.916 795.17 341.746 795.662 341.406 795.99C341.066 796.307 340.662 796.465 340.193 796.465C339.701 796.465 339.291 796.307 338.963 795.99C338.635 795.662 338.471 795.17 338.471 794.514ZM363.59 799.734V801.58L360.021 802.002C360.35 802.412 360.643 802.951 360.9 803.619C361.158 804.275 361.287 805.02 361.287 805.852C361.287 807.738 360.643 809.244 359.354 810.369C358.064 811.494 356.295 812.057 354.045 812.057C353.471 812.057 352.932 812.01 352.428 811.916C351.186 812.572 350.564 813.398 350.564 814.395C350.564 814.922 350.781 815.314 351.215 815.572C351.648 815.818 352.393 815.941 353.447 815.941H356.857C358.943 815.941 360.543 816.381 361.656 817.26C362.781 818.139 363.344 819.416 363.344 821.092C363.344 823.225 362.488 824.848 360.777 825.961C359.066 827.086 356.57 827.648 353.289 827.648C350.77 827.648 348.824 827.18 347.453 826.242C346.094 825.305 345.414 823.98 345.414 822.27C345.414 821.098 345.789 820.084 346.539 819.229C347.289 818.373 348.344 817.793 349.703 817.488C349.211 817.266 348.795 816.92 348.455 816.451C348.127 815.982 347.963 815.438 347.963 814.816C347.963 814.113 348.15 813.498 348.525 812.971C348.9 812.443 349.492 811.934 350.301 811.441C349.305 811.031 348.49 810.334 347.857 809.35C347.236 808.365 346.926 807.24 346.926 805.975C346.926 803.865 347.559 802.242 348.824 801.105C350.09 799.957 351.883 799.383 354.203 799.383C355.211 799.383 356.119 799.5 356.928 799.734H363.59ZM348.227 822.234C348.227 823.277 348.666 824.068 349.545 824.607C350.424 825.146 351.684 825.416 353.324 825.416C355.773 825.416 357.584 825.047 358.756 824.309C359.939 823.582 360.531 822.592 360.531 821.338C360.531 820.295 360.209 819.568 359.564 819.158C358.92 818.76 357.707 818.561 355.926 818.561H352.428C351.104 818.561 350.072 818.877 349.334 819.51C348.596 820.143 348.227 821.051 348.227 822.234ZM349.809 805.904C349.809 807.252 350.189 808.271 350.951 808.963C351.713 809.654 352.773 810 354.133 810C356.98 810 358.404 808.617 358.404 805.852C358.404 802.957 356.963 801.51 354.08 801.51C352.709 801.51 351.654 801.879 350.916 802.617C350.178 803.355 349.809 804.451 349.809 805.904ZM380.729 819V806.537C380.729 804.967 380.371 803.795 379.656 803.021C378.941 802.248 377.822 801.861 376.299 801.861C374.283 801.861 372.807 802.406 371.869 803.496C370.932 804.586 370.463 806.385 370.463 808.893V819H367.545V799.734H369.918L370.393 802.371H370.533C371.131 801.422 371.969 800.689 373.047 800.174C374.125 799.646 375.326 799.383 376.65 799.383C378.971 799.383 380.717 799.945 381.889 801.07C383.061 802.184 383.646 803.971 383.646 806.432V819H380.729ZM401.928 819H399.01V799.734H401.928V819ZM398.764 794.514C398.764 793.846 398.928 793.359 399.256 793.055C399.584 792.738 399.994 792.58 400.486 792.58C400.955 792.58 401.359 792.738 401.699 793.055C402.039 793.371 402.209 793.857 402.209 794.514C402.209 795.17 402.039 795.662 401.699 795.99C401.359 796.307 400.955 796.465 400.486 796.465C399.994 796.465 399.584 796.307 399.256 795.99C398.928 795.662 398.764 795.17 398.764 794.514ZM421.299 819V806.537C421.299 804.967 420.941 803.795 420.227 803.021C419.512 802.248 418.393 801.861 416.869 801.861C414.854 801.861 413.377 802.406 412.439 803.496C411.502 804.586 411.033 806.385 411.033 808.893V819H408.115V799.734H410.488L410.963 802.371H411.104C411.701 801.422 412.539 800.689 413.617 800.174C414.695 799.646 415.896 799.383 417.221 799.383C419.541 799.383 421.287 799.945 422.459 801.07C423.631 802.184 424.217 803.971 424.217 806.432V819H421.299Z" fill="white"/>
<path d="M1440 158L1449.73 720.829C1449.9 730.727 1460.01 737.326 1469.14 733.498L1848 574.663L1468.83 762.264C1461.91 765.686 1459.07 774.057 1462.47 780.982L1692.16 1248.84L1452.3 807.738C1447 797.989 1433 797.989 1427.7 807.738L1187.84 1248.84L1417.53 780.982C1420.93 774.057 1418.09 765.686 1411.17 762.264L1032 574.663L1410.86 733.498C1419.99 737.326 1430.1 730.727 1430.27 720.829L1440 158Z" fill="white"/>
<path d="M827 609L831.698 892.299L851.564 611.509L841.042 894.213L875.859 619.008L850.232 898.021L899.619 631.416L859.168 903.679L922.583 648.596L867.751 911.127L944.5 670.36L875.888 920.283L965.13 696.47L883.489 931.046L984.246 726.64L890.471 943.298L1001.64 760.538L896.758 956.906L1017.12 797.794L902.281 971.721L1030.52 838L906.979 987.579L1041.68 880.715L910.8 1004.31L1050.5 925.47L913.703 1021.72L1056.86 971.776L915.657 1039.63L1060.71 1019.13L916.639 1057.84L1062 1067L916.639 1076.16L1060.71 1114.87L915.657 1094.37L1056.86 1162.22L913.703 1112.28L1050.5 1208.53L910.8 1129.69L1041.68 1253.29L906.979 1146.42L1030.52 1296L902.281 1162.28L1017.12 1336.21L896.758 1177.09L1001.64 1373.46L890.471 1190.7L984.246 1407.36L883.489 1202.95L965.13 1437.53L875.888 1213.72L944.5 1463.64L867.751 1222.87L922.583 1485.4L859.168 1230.32L899.619 1502.58L850.232 1235.98L875.859 1514.99L841.042 1239.79L851.564 1522.49L831.698 1241.7L827 1525L822.302 1241.7L802.436 1522.49L812.958 1239.79L778.141 1514.99L803.768 1235.98L754.381 1502.58L794.832 1230.32L731.417 1485.4L786.249 1222.87L709.5 1463.64L778.112 1213.72L688.87 1437.53L770.511 1202.95L669.754 1407.36L763.529 1190.7L652.361 1373.46L757.242 1177.09L636.881 1336.21L751.719 1162.28L623.484 1296L747.021 1146.42L612.317 1253.29L743.2 1129.69L603.502 1208.53L740.297 1112.28L597.135 1162.22L738.343 1094.37L593.287 1114.87L737.361 1076.16L592 1067L737.361 1057.84L593.287 1019.13L738.343 1039.63L597.135 971.776L740.297 1021.72L603.502 925.47L743.2 1004.31L612.317 880.715L747.021 987.579L623.484 838L751.719 971.721L636.881 797.794L757.242 956.906L652.361 760.538L763.529 943.298L669.754 726.64L770.511 931.046L688.87 696.47L778.112 920.283L709.5 670.36L786.249 911.127L731.417 648.596L794.832 903.679L754.381 631.416L803.768 898.021L778.141 619.008L812.958 894.213L802.436 611.509L822.302 892.299L827 609Z" fill="white"/>
</g>
<defs>
<filter id="filter0_d" x="-265.116" y="10" width="1026.23" height="1788.44" filterUnits="userSpaceOnUse" color-interpolation-filters="sRGB">
<feFlood flood-opacity="0" result="BackgroundImageFix"/>
<feColorMatrix in="SourceAlpha" type="matrix" values="0 0 0 0 0 0 0 0 0 0 0 0 0 0 0 0 0 0 127 0"/>
<feOffset dx="25" dy="67"/>
<feGaussianBlur stdDeviation="24.5"/>
<feColorMatrix type="matrix" values="0 0 0 0 0.243137 0 0 0 0 0.756863 0 0 0 0 0.6 0 0 0 0.12 0"/>
<feBlend mode="normal" in2="BackgroundImageFix" result="effect1_dropShadow"/>
<feBlend mode="normal" in="SourceGraphic" in2="effect1_dropShadow" result="shape"/>
</filter>
<clipPath id="clip0">
<rect width="1440" height="1024" fill="white"/>
</clipPath>
</defs>
</svg>
