<svg width="1440" height="1024" viewBox="0 0 1440 1024" fill="none" xmlns="http://www.w3.org/2000/svg">
<g clip-path="url(#clip0)">
<rect width="1440" height="1024" fill="white"/>
<g filter="url(#filter0_d)">
<path d="M824 558L828.698 866.351L848.564 560.731L838.042 868.434L872.859 568.893L847.232 872.578L896.619 582.398L856.168 878.737L919.583 601.098L864.751 886.843L941.5 624.786L872.888 896.809L962.13 653.205L880.489 908.524L981.246 686.042L887.471 921.86L998.639 722.938L893.758 936.671L1014.12 763.489L899.281 952.795L1027.52 807.25L903.979 970.056L1038.68 853.742L907.8 988.263L1047.5 902.455L910.703 1007.22L1053.86 952.856L912.657 1026.71L1057.71 1004.39L913.639 1046.53L1059 1056.5L913.639 1066.47L1057.71 1108.61L912.657 1086.29L1053.86 1160.14L910.703 1105.78L1047.5 1210.54L907.8 1124.74L1038.68 1259.26L903.979 1142.94L1027.52 1305.75L899.281 1160.2L1014.12 1349.51L893.758 1176.33L998.639 1390.06L887.471 1191.14L981.246 1426.96L880.489 1204.48L962.13 1459.79L872.888 1216.19L941.5 1488.21L864.751 1226.16L919.583 1511.9L856.168 1234.26L896.619 1530.6L847.232 1240.42L872.859 1544.11L838.042 1244.57L848.564 1552.27L828.698 1246.65L824 1555L819.302 1246.65L799.436 1552.27L809.958 1244.57L775.141 1544.11L800.768 1240.42L751.381 1530.6L791.832 1234.26L728.417 1511.9L783.249 1226.16L706.5 1488.21L775.112 1216.19L685.87 1459.79L767.511 1204.48L666.754 1426.96L760.529 1191.14L649.361 1390.06L754.242 1176.33L633.881 1349.51L748.719 1160.2L620.484 1305.75L744.021 1142.94L609.317 1259.26L740.2 1124.74L600.502 1210.54L737.297 1105.78L594.135 1160.14L735.343 1086.29L590.287 1108.61L734.361 1066.47L589 1056.5L734.361 1046.53L590.287 1004.39L735.343 1026.71L594.135 952.856L737.297 1007.22L600.502 902.455L740.2 988.263L609.317 853.742L744.021 970.056L620.484 807.25L748.719 952.795L633.881 763.489L754.242 936.671L649.361 722.938L760.529 921.86L666.754 686.042L767.511 908.524L685.87 653.205L775.112 896.809L706.5 624.786L783.249 886.843L728.417 601.098L791.832 878.737L751.381 582.398L800.768 872.578L775.141 568.893L809.958 868.434L799.436 560.731L819.302 866.351L824 558Z" fill="white"/>
</g>
<g filter="url(#filter1_d)">
<path d="M1304.62 196.085L848.562 115.138L910.286 427.727L809.286 115.378L396.767 201.624L790.4 89.5291L473.724 -169.756L818.003 73.3142L1034.81 -173.18L853.949 89.1413L1304.62 196.085Z" fill="white"/>
</g>
<rect y="-28" width="711" height="1322" fill="#3EC199"/>
<g filter="url(#filter2_d)">
<path d="M0 202L98.7861 742.003L418.465 742.003L159.839 1075.74L258.625 1615.75L0 1282.01L-258.626 1615.75L-159.839 1075.74L-418.465 742.003L-98.7862 742.003L0 202Z" fill="white"/>
</g>
<g filter="url(#filter3_d)">
<path d="M1440 8L1449.73 570.829C1449.9 580.727 1460.01 587.326 1469.14 583.498L1848 424.663L1468.83 612.264C1461.91 615.686 1459.07 624.057 1462.47 630.982L1692.16 1098.84L1452.3 657.738C1447 647.989 1433 647.989 1427.7 657.738L1187.84 1098.84L1417.53 630.982C1420.93 624.057 1418.09 615.686 1411.17 612.264L1032 424.663L1410.86 583.498C1419.99 587.326 1430.1 580.727 1430.27 570.829L1440 8Z" fill="white"/>
</g>
<path d="M1064.41 845.162C1064.41 847.424 1063.59 849.188 1061.95 850.453C1060.31 851.719 1058.09 852.352 1055.27 852.352C1052.23 852.352 1049.88 851.959 1048.24 851.174V848.291C1049.3 848.736 1050.45 849.088 1051.69 849.346C1052.93 849.604 1054.16 849.732 1055.38 849.732C1057.37 849.732 1058.87 849.357 1059.88 848.607C1060.89 847.846 1061.39 846.791 1061.39 845.443C1061.39 844.553 1061.21 843.826 1060.85 843.264C1060.49 842.689 1059.9 842.162 1059.05 841.682C1058.22 841.201 1056.95 840.656 1055.24 840.047C1052.85 839.191 1051.14 838.178 1050.11 837.006C1049.09 835.834 1048.58 834.305 1048.58 832.418C1048.58 830.438 1049.32 828.861 1050.81 827.689C1052.3 826.518 1054.27 825.932 1056.71 825.932C1059.27 825.932 1061.62 826.4 1063.76 827.338L1062.83 829.939C1060.71 829.049 1058.65 828.604 1056.64 828.604C1055.06 828.604 1053.83 828.943 1052.94 829.623C1052.04 830.303 1051.6 831.246 1051.6 832.453C1051.6 833.344 1051.76 834.076 1052.09 834.65C1052.42 835.213 1052.97 835.734 1053.74 836.215C1054.53 836.684 1055.72 837.205 1057.33 837.779C1060.03 838.74 1061.88 839.771 1062.88 840.873C1063.9 841.975 1064.41 843.404 1064.41 845.162ZM1072.15 852H1069.23V832.734H1072.15V852ZM1068.98 827.514C1068.98 826.846 1069.15 826.359 1069.48 826.055C1069.8 825.738 1070.21 825.58 1070.71 825.58C1071.18 825.58 1071.58 825.738 1071.92 826.055C1072.26 826.371 1072.43 826.857 1072.43 827.514C1072.43 828.17 1072.26 828.662 1071.92 828.99C1071.58 829.307 1071.18 829.465 1070.71 829.465C1070.21 829.465 1069.8 829.307 1069.48 828.99C1069.15 828.662 1068.98 828.17 1068.98 827.514ZM1094.1 832.734V834.58L1090.54 835.002C1090.86 835.412 1091.16 835.951 1091.41 836.619C1091.67 837.275 1091.8 838.02 1091.8 838.852C1091.8 840.738 1091.16 842.244 1089.87 843.369C1088.58 844.494 1086.81 845.057 1084.56 845.057C1083.98 845.057 1083.45 845.01 1082.94 844.916C1081.7 845.572 1081.08 846.398 1081.08 847.395C1081.08 847.922 1081.29 848.314 1081.73 848.572C1082.16 848.818 1082.91 848.941 1083.96 848.941H1087.37C1089.46 848.941 1091.06 849.381 1092.17 850.26C1093.29 851.139 1093.86 852.416 1093.86 854.092C1093.86 856.225 1093 857.848 1091.29 858.961C1089.58 860.086 1087.08 860.648 1083.8 860.648C1081.28 860.648 1079.34 860.18 1077.97 859.242C1076.61 858.305 1075.93 856.98 1075.93 855.27C1075.93 854.098 1076.3 853.084 1077.05 852.229C1077.8 851.373 1078.86 850.793 1080.22 850.488C1079.72 850.266 1079.31 849.92 1078.97 849.451C1078.64 848.982 1078.48 848.438 1078.48 847.816C1078.48 847.113 1078.66 846.498 1079.04 845.971C1079.41 845.443 1080.01 844.934 1080.81 844.441C1079.82 844.031 1079 843.334 1078.37 842.35C1077.75 841.365 1077.44 840.24 1077.44 838.975C1077.44 836.865 1078.07 835.242 1079.34 834.105C1080.6 832.957 1082.4 832.383 1084.72 832.383C1085.72 832.383 1086.63 832.5 1087.44 832.734H1094.1ZM1078.74 855.234C1078.74 856.277 1079.18 857.068 1080.06 857.607C1080.94 858.146 1082.2 858.416 1083.84 858.416C1086.29 858.416 1088.1 858.047 1089.27 857.309C1090.45 856.582 1091.04 855.592 1091.04 854.338C1091.04 853.295 1090.72 852.568 1090.08 852.158C1089.43 851.76 1088.22 851.561 1086.44 851.561H1082.94C1081.62 851.561 1080.59 851.877 1079.85 852.51C1079.11 853.143 1078.74 854.051 1078.74 855.234ZM1080.32 838.904C1080.32 840.252 1080.7 841.271 1081.46 841.963C1082.23 842.654 1083.29 843 1084.65 843C1087.49 843 1088.92 841.617 1088.92 838.852C1088.92 835.957 1087.48 834.51 1084.59 834.51C1083.22 834.51 1082.17 834.879 1081.43 835.617C1080.69 836.355 1080.32 837.451 1080.32 838.904ZM1111.24 852V839.537C1111.24 837.967 1110.88 836.795 1110.17 836.021C1109.46 835.248 1108.34 834.861 1106.81 834.861C1104.8 834.861 1103.32 835.406 1102.38 836.496C1101.45 837.586 1100.98 839.385 1100.98 841.893V852H1098.06V832.734H1100.43L1100.91 835.371H1101.05C1101.64 834.422 1102.48 833.689 1103.56 833.174C1104.64 832.646 1105.84 832.383 1107.16 832.383C1109.48 832.383 1111.23 832.945 1112.4 834.07C1113.57 835.184 1114.16 836.971 1114.16 839.432V852H1111.24ZM1132.27 832.734V845.232C1132.27 846.803 1132.62 847.975 1133.34 848.748C1134.05 849.521 1135.17 849.908 1136.7 849.908C1138.71 849.908 1140.18 849.357 1141.11 848.256C1142.04 847.154 1142.51 845.355 1142.51 842.859V832.734H1145.43V852H1143.02L1142.6 849.416H1142.44C1141.85 850.365 1141.01 851.092 1139.95 851.596C1138.89 852.1 1137.69 852.352 1136.33 852.352C1133.98 852.352 1132.22 851.795 1131.05 850.682C1129.89 849.568 1129.31 847.787 1129.31 845.338V832.734H1132.27ZM1160.6 852.352C1159.35 852.352 1158.2 852.123 1157.16 851.666C1156.12 851.197 1155.26 850.482 1154.55 849.521H1154.34C1154.48 850.646 1154.55 851.713 1154.55 852.721V860.648H1151.64V832.734H1154.01L1154.41 835.371H1154.55C1155.3 834.316 1156.18 833.555 1157.17 833.086C1158.17 832.617 1159.31 832.383 1160.6 832.383C1163.16 832.383 1165.12 833.256 1166.51 835.002C1167.9 836.748 1168.6 839.197 1168.6 842.35C1168.6 845.514 1167.89 847.975 1166.47 849.732C1165.07 851.479 1163.11 852.352 1160.6 852.352ZM1160.18 834.861C1158.21 834.861 1156.79 835.406 1155.91 836.496C1155.03 837.586 1154.58 839.32 1154.55 841.699V842.35C1154.55 845.057 1155.01 846.996 1155.91 848.168C1156.81 849.328 1158.26 849.908 1160.25 849.908C1161.91 849.908 1163.21 849.234 1164.15 847.887C1165.1 846.539 1165.58 844.682 1165.58 842.314C1165.58 839.912 1165.1 838.072 1164.15 836.795C1163.21 835.506 1161.89 834.861 1160.18 834.861Z" fill="white"/>
</g>
<defs>
<filter id="filter0_d" x="589" y="558" width="498" height="1001" filterUnits="userSpaceOnUse" color-interpolation-filters="sRGB">
<feFlood flood-opacity="0" result="BackgroundImageFix"/>
<feColorMatrix in="SourceAlpha" type="matrix" values="0 0 0 0 0 0 0 0 0 0 0 0 0 0 0 0 0 0 127 0"/>
<feOffset dx="28" dy="4"/>
<feColorMatrix type="matrix" values="0 0 0 0 0.972549 0 0 0 0 0.458824 0 0 0 0 0.458824 0 0 0 0.12 0"/>
<feBlend mode="normal" in2="BackgroundImageFix" result="effect1_dropShadow"/>
<feBlend mode="normal" in="SourceGraphic" in2="effect1_dropShadow" result="shape"/>
</filter>
<filter id="filter1_d" x="337.986" y="-315.519" width="1063.89" height="851.057" filterUnits="userSpaceOnUse" color-interpolation-filters="sRGB">
<feFlood flood-opacity="0" result="BackgroundImageFix"/>
<feColorMatrix in="SourceAlpha" type="matrix" values="0 0 0 0 0 0 0 0 0 0 0 0 0 0 0 0 0 0 127 0"/>
<feOffset dy="4"/>
<feGaussianBlur stdDeviation="17.5"/>
<feColorMatrix type="matrix" values="0 0 0 0 0.972549 0 0 0 0 0.458824 0 0 0 0 0.458824 0 0 0 0.69 0"/>
<feBlend mode="normal" in2="BackgroundImageFix" result="effect1_dropShadow"/>
<feBlend mode="normal" in="SourceGraphic" in2="effect1_dropShadow" result="shape"/>
</filter>
<filter id="filter2_d" x="-428.465" y="191" width="902.93" height="1479.75" filterUnits="userSpaceOnUse" color-interpolation-filters="sRGB">
<feFlood flood-opacity="0" result="BackgroundImageFix"/>
<feColorMatrix in="SourceAlpha" type="matrix" values="0 0 0 0 0 0 0 0 0 0 0 0 0 0 0 0 0 0 127 0"/>
<feOffset dx="23" dy="22"/>
<feGaussianBlur stdDeviation="16.5"/>
<feColorMatrix type="matrix" values="0 0 0 0 1 0 0 0 0 1 0 0 0 0 1 0 0 0 1 0"/>
<feBlend mode="normal" in2="BackgroundImageFix" result="effect1_dropShadow"/>
<feBlend mode="normal" in="SourceGraphic" in2="effect1_dropShadow" result="shape"/>
</filter>
<filter id="filter3_d" x="985.997" y="-23" width="922.006" height="1196.84" filterUnits="userSpaceOnUse" color-interpolation-filters="sRGB">
<feFlood flood-opacity="0" result="BackgroundImageFix"/>
<feColorMatrix in="SourceAlpha" type="matrix" values="0 0 0 0 0 0 0 0 0 0 0 0 0 0 0 0 0 0 127 0"/>
<feOffset dx="7" dy="22"/>
<feGaussianBlur stdDeviation="26.5"/>
<feColorMatrix type="matrix" values="0 0 0 0 0.972549 0 0 0 0 0.458824 0 0 0 0 0.458824 0 0 0 0.15 0"/>
<feBlend mode="normal" in2="BackgroundImageFix" result="effect1_dropShadow"/>
<feBlend mode="normal" in="SourceGraphic" in2="effect1_dropShadow" result="shape"/>
</filter>
<clipPath id="clip0">
<rect width="1440" height="1024" fill="white"/>
</clipPath>
</defs>
</svg>
